<svg width="64" height="64" viewBox="0 0 64 64" fill="none" xmlns="http://www.w3.org/2000/svg">
  <defs>
    <linearGradient id="bg" x1="0" y1="0" x2="1" y2="1">
      <stop offset="0%" stop-color="#10264f"/>
      <stop offset="100%" stop-color="#1c3566"/>
    </linearGradient>
  </defs>
  <rect width="64" height="64" rx="14" fill="url(#bg)"/>
  <path d="M32 6c-9.39 0-17 7.61-17 17 0 13.08 17 34.5 17 34.5S49 36.08 49 23c0-9.39-7.61-17-17-17z" fill="#1c3566"/>
  <circle cx="32" cy="23" r="12" fill="white"/>
  <path d="M32 12a11 11 0 00-9.8 6.16c1.55.16 2.92.26 4.16.84 1.4.65 2.48 2.17 2.2 3.48-.32 1.5-1.46 2.22-2.52 2.8-1.38.76-2.74 1.45-3.57 2.92-.2.35-.36.73-.47 1.13A11 11 0 1043 23c0-.32-.02-.63-.05-.94-.64.12-1.3.1-1.92-.09-.66-.21-1.23-.66-1.9-.73-1.1-.12-2.08.87-3.25.69-.62-.1-1.1-.5-1.65-.75-1.12-.52-2.47-.36-3.61-.85-1.6-.69-2.76-2.39-3-4-.14-.94.13-2.07-.7-2.65-.7-.48-1.71-.47-2.54-.61.95-1.05 2.11-1.88 3.4-2.42A10.97 10.97 0 0132 12z" fill="#1c3566"/>
</svg>
